<svg xmlns="http://www.w3.org/2000/svg" viewBox="0 0 128 48">
<defs>
  <linearGradient id="outer" x1="0.15" x2="0.95" y1="0.3" y2="0.7" gradientTransform="rotate(30)">
    <stop offset="0%"  stop-color="#dc4f13"/>
    <stop offset="100%" stop-color="#f99e20"/>
  </linearGradient>
  <radialGradient id="inner" cx="0.25" cy="0" r="0.5" gradientTransform="rotate(30)">
    <stop offset="0%" stop-color="#a83f18" stop-opacity="1" />
    <stop offset="100%" stop-color="#a83f18" stop-opacity="0" />
  </radialGradient>
</defs>
<ellipse fill="url(#outer)" cx="66.65" cy="29" rx="10.75" ry="10.5" />
<ellipse fill="none" stroke="url(#inner)" stroke-width="2" cx="66.65" cy="29" rx="9.75" ry="9.5" />
<path fill="#231f20" d="m 31.1,18.5 c -3.6,0 -6.3,2.5 -6.3,5.8 0,2.8 1.3,4.2 5,5.5 2,0.55 3.9,1.5 3.9,3.3 0,1.6 -1.3,2.8 -3.1,2.8 -1.9,0 -3.4,-0.9 -4.3,-2.7 l -2.5,2.5 c 1.8,2.7 4,3.8 7,3.8 4.1,0 7,-2.7 7,-6.6 0,-3.2 -1.3,-4.7 -5.8,-6.3 -2.4,-0.9 -3.1,-1.5 -3.1,-2.5 0,-1.3 1.2,-2.2 2.9,-2.2 C 33,21.9 34,22.4 35,23.5 l 2.1,-2.7 c -1.7,-1.5 -3.8,-2.3 -6,-2.3 z m 18.5,0 c -5.9,0 -10.7,4.7 -10.7,10.5 0,5.9 4.6,10.5 10.6,10.5 1.7,0 3.1,-0.3 4.9,-1.2 l 0,-4.6 c -1.6,1.6 -3,2.2 -4.7,2.2 C 45.8,35.9 43,33 43,29 c 0,-3.9 2.9,-6.9 6.6,-6.9 1.9,0 3.3,0.7 4.9,2.3 l 0,-4.6 C 52.7,18.9 51.3,18.5 49.6,18.5 Z M 0,19 0,39 5.7,39 C 12,39 16.5,35 16.5,29 16.5,23 12,19 5.7,19 Z m 18.4,0 0,20 3.9,0 0,-20 z M 76.6,19 84.9,39 87,39 95.4,19 91.3,19 86,32.1 80.7,19 Z m 21.1,0 0,20 11,0 0,-3.4 -7.1,0 0,-5.4 6.9,0 0,-3.4 -6.9,0 0,-4.4 7.1,0 0,-3.4 z m 13.7,0 0,20 3.9,0 0,-8 0.5,0 5.4,8 4.8,0 -6.3,-8.4 c 2.9,-0.6 4.5,-2.6 4.5,-5.7 0,-3.7 -2.6,-5.9 -7,-5.9 z m 14.8,0.1 c -0.94,0 -1.7,0.76 -1.7,1.7 0,0.94 0.76,1.7 1.7,1.7 0.94,0 1.7,-0.76 1.7,-1.7 0,-0.94 -0.76,-1.7 -1.7,-1.7 z m 0,0.4 c 0.72,0 1.3,0.58 1.3,1.3 0,0.72 -0.58,1.3 -1.3,1.3 -0.72,0 -1.3,-0.58 -1.3,-1.3 0,-0.72 0.58,-1.3 1.3,-1.3 z m -0.275,0.42 -0.34,0 0,1.75 0.4,0 -0,-0.68 0.41,0.68 0.48,0 -0.48,-0.7 c 0.25,-0.05 0.45,-0.22 0.42,-0.58 -0.02,-0.28 -0.2,-0.5 -0.875,-0.49 z m 0.04,0.32 c 0.32,-0.02 0.42,0.02 0.44,0.2 0.024,0.18 -0.14,0.24 -0.43,0.23 l -0.02,-0.44 z m -10.66,1.86 1.2,0 c 2.4,0 3.7,1 3.7,3 0,2 -1.3,3.1 -3.8,3.1 l -1.1,0 z M 4.77,22.35 C 9.08,22.26 12.6,24.31 12.6,29 c 0,5 -4,7 -8.7,6.6 l 0,-13.2 c 0.29,-0.025 0.58,-0.04 0.87,-0.05 z" />
</svg>